<?xml version="1.0" encoding="UTF-8"?>
<svg width="115" height="112" viewBox="0 0 115 112" fill="none" xmlns="http://www.w3.org/2000/svg">
<path d="M26.7134 78.9166H45.1856V98.6136H26.7134V78.9166Z" fill="#FFA500"/>
<path d="M48.2642 54.2954H66.7364V98.6136H48.2642V54.2954Z" fill="#EE82EE"/>
<path d="M69.8152 66.6061H88.2874V98.6137H69.8152V66.6061Z" fill="#64CD8A"/>
<path d="M80.7953 6V15.5455H74.9712V31.023C74.9712 36.5479 76.4342 42.007 79.2594 47.0235L104.194 91.2953C106.216 94.8854 104.303 99.1388 99.9226 100.795C98.7747 101.23 97.526 101.455 96.2616 101.455H18.7361C13.9113 101.455 10 98.2492 10 94.2954C10 93.2593 10.2743 92.236 10.8041 91.2953L35.7383 47.0235C38.5636 42.007 40.0268 36.5479 40.0268 31.023V15.5455H34.2027V6H80.7953ZM65.5822 44.1875H49.4158C48.8083 45.921 48.0809 47.6282 47.2353 49.3001L46.3145 51.0235L23.2826 91.9091H91.7095L68.6835 51.0235C67.4349 48.8071 66.3993 46.5214 65.5822 44.1875ZM51.6749 31.023C51.6749 32.2321 51.619 33.4389 51.5072 34.6405H63.4908C63.4366 34.0628 63.3959 33.4838 63.3685 32.9041L63.3231 31.023V15.5455H51.6749V31.023Z" fill="#2C927E"/>
</svg>