<svg width="1000" height="1000" viewBox="0 0 1000 1000" fill="none" xmlns="http://www.w3.org/2000/svg">
<path d="M727.4 388.2L726.6 437H745.8L746.6 388.2H727.4Z" fill="white" stroke="white" stroke-width="0.32"/>
<rect x="285" y="389" width="65.6" height="350.4" fill="#FF6189"/>
<rect x="661" y="462.6" width="65.6" height="275.2" fill="#FFD866"/>
<path d="M251.618 437.094H271.789L271.779 672.258C271.776 706.612 274.003 736.876 317.404 735.365C351.778 727.416 350.695 704.184 350.699 676.586L350.696 470.326H285.375V450.04L328.7 450.051C336.013 450.055 343.393 450.311 350.696 450.04C350.92 445.698 350.85 441.435 350.696 437.094C357.524 437.084 364.404 436.888 371.226 437.094L371.237 675.176C371.237 685.99 372.035 697.682 370.104 708.338C358.799 770.761 263.927 772.055 252.539 706.413C250.746 696.075 251.607 684.719 251.607 674.227L251.597 438.293L251.618 437.094Z" fill="white"/>
<path d="M539.271 436.351C546.085 436.335 553.018 436.039 559.818 436.351L559.826 677.687C559.823 701.544 561.351 720.05 542.943 738.549C519.459 762.151 479.01 761.396 455.815 737.751C437.484 719.066 438.976 699.9 438.976 675.884L438.986 436.351C445.666 436.36 452.379 436.202 459.055 436.351L459.042 670.904C459.039 701.144 458.682 733.687 498.57 735.463C499.264 735.386 499.948 735.268 500.637 735.152C472.397 725.047 472.799 708.224 472.8 683.354L472.812 506.516C472.778 499.615 472.495 492.602 472.812 485.714H539.271C539.551 469.276 539.264 452.794 539.271 436.351Z" fill="white"/>
<path d="M726.325 437.13C732.78 437.291 739.343 436.769 745.759 437.13L745.769 675.956C745.771 700.673 747.322 719.868 728.342 738.855C705.465 761.744 666.11 760.526 643.863 737.421C625.934 718.799 627.426 700.912 627.433 677.176L627.445 437.13C633.84 437.144 640.4 437.478 646.776 437.13L646.762 673.37C646.762 683.248 646.028 694.018 647.604 703.753C650.961 724.489 669.934 737.618 689.8 736.2C689.688 735.667 690.136 734.994 689.606 734.793C663.119 724.819 660.594 708.952 660.837 685.218L660.872 536.572C660.805 529.864 660.854 523.102 661.864 516.457H726.325C726.607 507.513 726.331 498.508 726.326 489.558L726.325 437.13Z" fill="white"/>
<path d="M472.812 506.516H539.271L539.276 675.666C539.274 686.037 539.733 696.855 537.817 707.09C534.633 724.1 515.996 738.151 498.57 735.463C499.265 735.386 497.911 735.515 498.6 735.4C470.36 725.294 472.799 708.224 472.801 683.354L472.812 506.516Z" fill="#77DCE8"/>
<path d="M661.052 536.2H726.594L726.6 674.025C726.591 700.425 725.95 734.102 690.315 736.15C690.122 736.161 689.925 736.289 689.393 736.087C662.871 726.053 660.774 709.609 661.017 685.733L661.052 536.2Z" fill="#FFD866"/>
<path d="M246.117 245.161C255.769 244.813 265.557 245.135 275.226 245.145L361.724 245.14C379.625 245.134 393.499 245.038 393.668 267.519C393.809 286.443 396.298 307.328 371.545 307.03V389H350.881V334.039V307.03C326.519 309.055 296.779 306.298 271.457 307.03V389H251.154V307.03C227.14 308.015 227.474 277.005 230.338 260.359C231.799 251.864 238.068 247.164 246.117 245.161ZM251.154 286.011C256.805 286.361 262.487 286.082 268.146 286.037L373.154 286.011V266.123H251.154C251.135 271.314 250.311 281.384 251.154 286.011Z" fill="white"/>
<path d="M531.658 245.722C565.532 245.745 581.167 237.083 581.247 279.162C581.279 295.089 578.287 307.292 559.818 307.119V388.465H539.271V307.119H467.693C464.813 307.06 461.935 307.09 459.055 307.119V388.465C452.383 388.698 445.661 388.514 438.986 388.465V307.119C425.348 308.25 418.752 297.25 418.578 284.924C417.936 239.395 428.373 245.705 466.368 245.703L531.658 245.722ZM438.986 286.26L547.255 286.297C551.364 286.311 555.741 286.634 559.818 286.26C560.237 281.887 560.458 270.734 559.818 266.523L479.159 266.513C465.813 266.512 452.317 266.078 438.986 266.523C439.132 272.95 439.495 279.868 438.986 286.26Z" fill="white"/>
<rect x="459.08" y="384.2" width="67.2" height="20.32" transform="rotate(90 459.08 384.2)" fill="white"/>
<rect x="559.72" y="381" width="67.2" height="20.32" transform="rotate(90 559.72 381)" fill="white"/>
<rect x="646.76" y="381" width="67.2" height="19.36" transform="rotate(90 646.76 381)" fill="white"/>
<path d="M623.72 245.721C632.951 245.082 642.693 245.703 651.975 245.709L709.38 245.733C721.645 245.739 754.732 242.787 762.848 250.031C771.066 257.365 779.309 307.109 746.922 307.119V388.465H727.303V329.746V307.119H647V388.465C640.503 388.583 633.984 388.468 627.485 388.465C626.149 364.874 626.487 330.713 627.485 307.119C614.924 306.397 606.88 300.431 606.132 287.125C605.279 271.991 602.175 246.848 623.72 245.721ZM627.485 286.26H746.922L747.962 286.02C749.332 282.706 748.527 270.807 748.503 266.523H627.485L626.88 266.985C626.717 273.322 627.52 279.853 627.485 286.26Z" fill="white"/>
<rect x="285" y="389" width="65.6" height="94.4" fill="#FF6189"/>
<rect x="661" y="462.6" width="65.6" height="206.4" fill="#FFD866"/>
<rect x="661" y="440.2" width="65.6" height="22.4" fill="white"/>
<rect x="285" y="366.6" width="67.2" height="22.4" fill="white"/>
<rect x="371.4" y="374.6" width="67.2" height="20.8" transform="rotate(90 371.4 374.6)" fill="white"/>
<rect x="272.2" y="389" width="49.6" height="20.8" transform="rotate(90 272.2 389)" fill="white"/>
</svg>
